<?xml version="1.0" encoding="UTF-8"?>
<svg id="svg" xmlns="http://www.w3.org/2000/svg" version="1.1" xmlns:svgjs="http://svgjs.com/svgjs" viewBox="0 0 423.2 73.4">
  <defs>
    <style>
      .cls-1 {
        font-family: CambriaMath, 'Cambria Math';
        font-size: 12px;
      }

      .cls-1, .cls-2 {
        fill: #000;
      }

      .cls-2 {
        stroke-width: 0px;
      }

      .cls-3 {
        fill: none;
        stroke: #000;
      }
    </style>
  </defs>
  <g id="all">
    <line id="SvgjsLine1013" class="cls-3" x1="12.3" y1="61" x2="162.8" y2="59.4"/>
    <line id="SvgjsLine3486" class="cls-3" x1="60.5" y1="59.4" x2="60.5" y2="35.4"/>
    <line id="SvgjsLine3622" class="cls-3" x1="112.7" y1="59.4" x2="112.3" y2="10"/>
    <line id="SvgjsLine4136" class="cls-3" x1="59.5" y1="35.4" x2="46.5" y2="14.3"/>
    <line id="SvgjsLine4237" class="cls-3" x1="59.5" y1="36.4" x2="74.6" y2="14.3"/>
    <text class="cls-1" transform="translate(2 64.3)"><tspan x="0" y="0">1</tspan></text>
    <text class="cls-1" transform="translate(38.9 14.2)"><tspan x="0" y="0">2</tspan></text>
    <text class="cls-1" transform="translate(76.5 14.2)"><tspan x="0" y="0">3</tspan></text>
    <text class="cls-1" transform="translate(164.4 62.2)"><tspan x="0" y="0">5</tspan></text>
    <text class="cls-1" transform="translate(115.9 13.2)"><tspan x="0" y="0">4</tspan></text>
    <line id="SvgjsLine1013-2" data-name="SvgjsLine1013" class="cls-3" x1="207.4" y1="58.5" x2="357.9" y2="57"/>
    <line id="SvgjsLine3486-2" data-name="SvgjsLine3486" class="cls-3" x1="255.7" y1="57" x2="255.7" y2="33"/>
    <line id="SvgjsLine3622-2" data-name="SvgjsLine3622" class="cls-3" x1="307.8" y1="57" x2="307.4" y2="7.5"/>
    <line id="SvgjsLine4136-2" data-name="SvgjsLine4136" class="cls-3" x1="254.7" y1="33" x2="241.6" y2="11.9"/>
    <line id="SvgjsLine4237-2" data-name="SvgjsLine4237" class="cls-3" x1="254.7" y1="34" x2="269.7" y2="11.9"/>
    <text class="cls-1" transform="translate(197.2 61.8)"><tspan x="0" y="0">1</tspan></text>
    <text class="cls-1" transform="translate(234 11.8)"><tspan x="0" y="0">3</tspan></text>
    <text class="cls-1" transform="translate(271.6 11.8)"><tspan x="0" y="0">2</tspan></text>
    <text class="cls-1" transform="translate(359.5 59.8)"><tspan x="0" y="0">5</tspan></text>
    <text class="cls-1" transform="translate(311 10.8)"><tspan x="0" y="0">4</tspan></text>
    <text class="cls-1" transform="translate(179.6 38.6)"><tspan x="0" y="0">=</tspan></text>
    <text class="cls-1" transform="translate(376.9 36.8)"><tspan x="0" y="0">=</tspan></text>
    <g>
      <g>
        <path class="cls-2" d="M397.9,25.8h-.1c0,0-.2.1-.4.1s-.4,0-.6,0h-.2v-.4h.2c.3,0,.6,0,.8-.1s.4-.2.5-.2.2-.1.3-.2c0,0,0,0,.1,0s.1,0,.2,0v5.7c0,0,0,0,.1,0s.1,0,.2,0,.3,0,.6,0h.2v.4h-.1c-.1,0-.6,0-1.5,0s-1.4,0-1.5,0h-.1v-.4h.6c.1,0,.2,0,.2,0s.1,0,.2,0,0,0,0,0,0,0,0,0,0,0,0,0v-5Z"/>
        <g>
          <path class="cls-2" d="M393.6,38.6c0-.2,0-.4.2-.6s.3-.4.5-.6.6-.3.9-.3c.4,0,.7,0,.9.3s.3.4.3.6c0,.2,0,.4-.2.5s-.2.1-.4.2c0,0-.2,0-.2,0s-.1-.1-.1-.2c0-.1,0-.2,0-.3s.1-.1.2-.2,0,0,.1,0,0,0,0,0c0,0,0,0,0,0s-.1,0-.2-.1-.2,0-.4,0c-.3,0-.5,0-.7.2s-.2.3-.2.5c0,.2,0,.3.2.3s.3.1.5.2.4,0,.5.1c.4.2.6.5.6.9s0,.4-.1.5-.2.4-.3.5c-.1.2-.3.3-.6.4-.3.1-.6.2-.9.2-.5,0-.8,0-1-.3-.2-.2-.3-.4-.3-.7,0-.2,0-.4.2-.5s.3-.2.4-.2.2,0,.3,0,.1.2.1.3c0,.2,0,.3-.2.4s-.2.2-.3.2c0,0,0,0,0,0s0,0,0,0c0,0,0,0,0,0s.1,0,.3.1c.2,0,.3,0,.5,0,.2,0,.4,0,.6-.1.2,0,.3-.2.4-.3,0-.1.1-.2.2-.3s0-.2,0-.2c0-.2,0-.3-.2-.4s-.3-.1-.5-.2-.4,0-.6-.1-.4-.2-.5-.3c-.1-.2-.2-.3-.2-.6Z"/>
          <g>
            <path class="cls-2" d="M397.6,39.9c-.1,0-.2,0-.3-.1,0,0-.1-.2-.1-.3,0-.3.1-.6.4-.8.2-.2.5-.4.9-.4s.8.1,1,.4.4.6.4,1c0,.2,0,.4-.1.6s-.2.3-.3.5-.3.3-.5.5c-.2.1-.4.3-.7.6l-.4.4h.5c.7,0,1.1,0,1.1,0,0,0,0-.2.2-.6h0s.3,0,.3,0h0s0,.2,0,.6c0,.4,0,.6-.1.6h0s-2.5,0-2.5,0h0v-.2s0,0,0-.1,0-.1.2-.2c.1-.1.2-.3.3-.4,0,0,.1-.1.2-.3s.2-.2.2-.3.1-.1.2-.2c0-.1.2-.2.2-.2,0,0,0-.1.2-.2s.1-.2.1-.2,0-.1.1-.2,0-.1,0-.2,0-.1,0-.2,0-.1,0-.2c0-.3,0-.5-.2-.7s-.4-.3-.7-.3-.3,0-.4.1-.2.2-.2.2,0,.1,0,.1,0,0,0,0c0,0,.2,0,.3,0s.1.2.1.3,0,.2-.1.3-.2.1-.3.1Z"/>
            <path class="cls-2" d="M401.1,39.7c-.1,0-.2,0-.3-.1s-.1-.2-.1-.3c0-.2.1-.5.3-.7s.5-.3.8-.3.3,0,.3,0c.3,0,.6.2.8.4s.3.4.3.6c0,.2,0,.5-.2.7s-.4.4-.6.5h0s0,0,0,0,.1,0,.2,0,.2,0,.3.1c.4.2.6.6.6.9s-.1.7-.4.9c-.3.3-.6.4-1.1.4s-.7,0-.9-.3c-.3-.2-.4-.4-.4-.7s0-.2.1-.3.2-.1.3-.1c.1,0,.2,0,.3.1s.1.2.1.3,0,0,0,.1,0,0,0,.1,0,0,0,0,0,0,0,0,0,0,0,0c0,0,0,0,0,0h0c.2.2.5.3.8.3s.4-.1.6-.4c0-.1.1-.4.1-.7h0c0-.6-.1-.9-.4-1,0,0-.2,0-.4,0h-.3s0,0,0,0c0,0,0,0,0-.1s0-.1,0-.1c.1,0,.3,0,.4,0,.2,0,.3-.1.4-.3s.2-.4.2-.8h0c0-.3,0-.5-.2-.6,0,0-.2,0-.3,0s-.3,0-.4,0-.2.1-.3.2,0,0,0,0h0s0,0,0,0,0,0,0,0,0,0,0,0,0,0,0,0,0,0,0,.1,0,0,0,.1c0,0,0,.2,0,.3s-.2.1-.3.1Z"/>
          </g>
        </g>
        <rect class="cls-2" x="391" y="32.9" width="14.5" height=".8"/>
      </g>
      <g>
        <path class="cls-2" d="M415.6,25.8h-.1c0,0-.2.1-.4.1s-.4,0-.6,0h-.2v-.4h.2c.3,0,.6,0,.8-.1s.4-.2.5-.2.2-.1.3-.2c0,0,0,0,.1,0s.1,0,.2,0v5.7c0,0,0,0,.1,0s.1,0,.2,0,.3,0,.6,0h.2v.4h-.1c-.1,0-.6,0-1.5,0s-1.4,0-1.5,0h-.1v-.4h.6c.1,0,.2,0,.2,0s.1,0,.2,0,0,0,0,0,0,0,0,0,0,0,0,0v-5Z"/>
        <g>
          <path class="cls-2" d="M411.4,38.6c0-.2,0-.4.2-.6s.3-.4.5-.6.6-.3.9-.3c.4,0,.7,0,.9.3s.3.4.3.6c0,.2,0,.4-.2.5s-.2.1-.4.2c0,0-.2,0-.2,0s-.1-.1-.1-.2c0-.1,0-.2,0-.3s.1-.1.2-.2,0,0,.1,0,0,0,0,0c0,0,0,0,0,0s-.1,0-.2-.1-.2,0-.4,0c-.3,0-.5,0-.7.2s-.2.3-.2.5c0,.2,0,.3.2.3s.3.1.5.2.4,0,.5.1c.4.2.6.5.6.9s0,.4-.1.5-.2.4-.3.5c-.1.2-.3.3-.6.4-.3.1-.6.2-.9.2-.5,0-.8,0-1-.3-.2-.2-.3-.4-.3-.7,0-.2,0-.4.2-.5s.3-.2.4-.2.2,0,.3,0,.1.2.1.3c0,.2,0,.3-.2.4s-.2.2-.3.2c0,0,0,0,0,0s0,0,0,0c0,0,0,0,0,0s.1,0,.3.1c.2,0,.3,0,.5,0,.2,0,.4,0,.6-.1.2,0,.3-.2.4-.3,0-.1.1-.2.2-.3s0-.2,0-.2c0-.2,0-.3-.2-.4s-.3-.1-.5-.2-.4,0-.6-.1-.4-.2-.5-.3c-.1-.2-.2-.3-.2-.6Z"/>
          <g>
            <path class="cls-2" d="M417.7,42.8c0,0-.4,0-.9,0s-.8,0-.9,0h0v-.3h.4s0,0,.1,0,0,0,0,0,0,0,0,0c0,0,0-.1,0-.4v-.3h-1.8v-.3l1-1.6c.7-1,1-1.6,1.1-1.6,0,0,0,0,.1,0h.2v3.2h.6v.3h-.6v.7s0,0,0,0c0,0,.2,0,.4,0h.2v.3h0ZM416.6,41.4v-2.3l-1.5,2.3h.7s.7,0,.7,0Z"/>
            <path class="cls-2" d="M419.1,41.7c0,.1,0,.2-.1.3s-.2.1-.3.1h0c.2.4.5.5.8.5s.5-.1.7-.4c0-.1.1-.4.1-.9s0-.8-.2-.9c-.1-.1-.2-.2-.4-.2h0c-.4,0-.6.2-.8.5,0,0,0,0,0,0s0,0-.1,0c0,0-.1,0-.1,0,0,0,0-.4,0-1.2v-.9c0-.2,0-.3,0-.3,0,0,0,0,0,0s0,0,.1,0c0,0,.2,0,.4.1s.3,0,.5,0c.3,0,.6,0,.9-.2,0,0,0,0,0,0,0,0,0,0,0,.1h0c-.4.5-.8.7-1.4.7s-.3,0-.4,0h0s0,1.2,0,1.2c0,0,.2-.1.2-.1s.1,0,.2-.1.2,0,.3,0c.4,0,.7.1.9.4s.4.6.4,1-.1.8-.4,1.1c-.3.3-.6.4-1.1.4-.4,0-.7-.1-.9-.4-.2-.2-.3-.5-.3-.8s0-.2,0-.3c0,0,.1-.1.2-.1s.1,0,.2,0c.1,0,.2,0,.3.1s.1.2.1.3Z"/>
          </g>
        </g>
        <rect class="cls-2" x="408.8" y="32.9" width="14.5" height=".8"/>
      </g>
    </g>
  </g>
</svg>